<mxfile host="app.diagrams.net" modified="2023-11-10T06:28:20.476Z" agent="Mozilla/5.0 (X11; Linux x86_64) AppleWebKit/537.36 (KHTML, like Gecko) Chrome/118.0.0.0 Safari/537.36" version="22.1.0" etag="3fzoH53Rag4BH-gmn_pi" type="github">
  <diagram name="第 1 页" id="VzTtqbzH-JvQAn8zhhkn">
    <mxGraphModel>
      <root>
        <mxCell id="0" />
        <mxCell id="1" parent="0" />
      </root>
    </mxGraphModel>
  </diagram>
</mxfile>
